<svg width="29" height="23" viewBox="0 0 29 23" fill="none" xmlns="http://www.w3.org/2000/svg">
<g clip-path="url(#clip0_6_333)">
<path d="M0.64917 0.666748C3.59053 0.666748 6.41143 1.83725 8.49129 3.92075C10.5711 6.00425 11.7396 8.83008 11.7396 11.7766V22.3334C8.79824 22.3334 5.97734 21.1629 3.89748 19.0794C1.81762 16.9959 0.64917 14.1701 0.64917 11.2236V0.666748Z" fill="#780096"/>
<path d="M12.708 13.3508V7.74489C12.708 6.81506 12.8909 5.89434 13.2462 5.03533C13.6015 4.17633 14.1223 3.39587 14.7789 2.73855C15.4354 2.08124 16.2147 1.55994 17.0724 1.20446C17.9301 0.848969 18.8493 0.666253 19.7775 0.666749V6.27453C19.7775 7.20427 19.5946 8.1249 19.2393 8.9838C18.884 9.8427 18.3631 10.623 17.7066 11.2802C17.05 11.9374 16.2707 12.4585 15.413 12.8138C14.5553 13.169 13.6361 13.3515 12.708 13.3508Z" fill="#780096"/>
<path d="M12.708 14.4456H20.8101C22.8969 14.4456 24.8983 15.276 26.3739 16.7542C27.8495 18.2324 28.6785 20.2373 28.6785 22.3278H20.5764C18.4896 22.3278 16.4882 21.4973 15.0126 20.0191C13.537 18.5409 12.708 16.5361 12.708 14.4456Z" fill="#780096"/>
</g>
<defs>
<clipPath id="clip0_6_333">
<rect width="28.0351" height="21.6667" fill="white" transform="translate(0.64917 0.666748)"/>
</clipPath>
</defs>
</svg>
