<svg width="91" height="23" viewBox="0 0 91 23" fill="none" xmlns="http://www.w3.org/2000/svg">
<g clip-path="url(#clip0_48_2907)">
<path d="M1 1C4.1826 1 7.23484 2.13448 9.48528 4.15388C11.7357 6.17327 13 8.91216 13 11.768V22C9.8174 22 6.76515 20.8655 4.51472 18.8461C2.26428 16.8267 1 14.0878 1 11.232V1Z" fill="#780096"/>
<path d="M12.708 13.3508V7.74489C12.708 6.81506 12.8909 5.89434 13.2462 5.03533C13.6015 4.17633 14.1223 3.39587 14.7789 2.73855C15.4354 2.08124 16.2147 1.55994 17.0724 1.20446C17.9301 0.848969 18.8493 0.666253 19.7775 0.666749V6.27453C19.7775 7.20427 19.5946 8.1249 19.2393 8.9838C18.884 9.8427 18.3631 10.623 17.7066 11.2802C17.05 11.9374 16.2707 12.4585 15.413 12.8138C14.5553 13.169 13.6361 13.3515 12.708 13.3508Z" fill="#780096"/>
<path d="M12.708 14.4456H20.8101C22.8969 14.4456 24.8983 15.276 26.3739 16.7542C27.8495 18.2324 28.6785 20.2373 28.6785 22.3278H20.5764C18.4896 22.3278 16.4882 21.4973 15.0126 20.0191C13.537 18.5409 12.708 16.5361 12.708 14.4456Z" fill="#780096"/>
</g>
<path d="M52.8022 22.3333H48.2671L43.3326 14.3125L41.6448 15.5365V22.3333H37.6509V3.29688H41.6448V12.0078C41.9111 11.6345 42.1731 11.2613 42.4308 10.888C42.6884 10.5148 42.9504 10.1415 43.2167 9.76823L48.3186 3.29688H52.7507L46.1799 11.7214L52.8022 22.3333Z" fill="#780096"/>
<path d="M67.9535 15.0286C67.9535 16.2439 67.7903 17.3203 67.4639 18.2578C67.1461 19.1953 66.678 19.9896 66.0596 20.6406C65.4498 21.283 64.7111 21.7691 63.8436 22.099C62.9847 22.4288 62.0141 22.5938 60.9319 22.5938C59.9183 22.5938 58.9864 22.4288 58.1361 22.099C57.2943 21.7691 56.56 21.283 55.933 20.6406C55.3145 19.9896 54.8335 19.1953 54.49 18.2578C54.155 17.3203 53.9875 16.2439 53.9875 15.0286C53.9875 13.4141 54.2709 12.0469 54.8378 10.9271C55.4047 9.80729 56.2121 8.9566 57.26 8.375C58.3079 7.7934 59.5576 7.5026 61.0092 7.5026C62.3577 7.5026 63.5516 7.7934 64.5908 8.375C65.6387 8.9566 66.459 9.80729 67.0516 10.9271C67.6529 12.0469 67.9535 13.4141 67.9535 15.0286ZM57.9944 15.0286C57.9944 15.9835 58.0974 16.7865 58.3036 17.4375C58.5097 18.0885 58.8318 18.579 59.2698 18.9089C59.7079 19.2387 60.2791 19.4036 60.9834 19.4036C61.6791 19.4036 62.2417 19.2387 62.6712 18.9089C63.1092 18.579 63.427 18.0885 63.6246 17.4375C63.8307 16.7865 63.9338 15.9835 63.9338 15.0286C63.9338 14.0651 63.8307 13.2665 63.6246 12.6328C63.427 11.9905 63.1092 11.5087 62.6712 11.1875C62.2331 10.8663 61.6619 10.7057 60.9576 10.7057C59.9183 10.7057 59.1625 11.066 58.6901 11.7865C58.2263 12.5069 57.9944 13.5877 57.9944 15.0286Z" fill="#780096"/>
<path d="M79.1624 10.7578H75.7611V22.3333H71.8315V10.7578H69.6671V8.84375L71.8315 7.77604V6.70833C71.8315 5.46701 72.0377 4.50347 72.4499 3.81771C72.8708 3.12326 73.4592 2.63715 74.215 2.35938C74.9795 2.07292 75.8813 1.92969 76.9206 1.92969C77.6851 1.92969 78.3808 1.99479 79.0078 2.125C79.6348 2.24653 80.1459 2.38542 80.541 2.54167L79.536 5.45833C79.2354 5.36285 78.909 5.27604 78.5569 5.19792C78.2047 5.11979 77.801 5.08073 77.3458 5.08073C76.7961 5.08073 76.3924 5.25 76.1347 5.58854C75.8856 5.9184 75.7611 6.34375 75.7611 6.86458V7.77604H79.1624V10.7578ZM89.3792 10.7578H85.9779V22.3333H82.0484V10.7578H79.8839V8.84375L82.0484 7.77604V6.70833C82.0484 5.46701 82.2545 4.50347 82.6668 3.81771C83.0877 3.12326 83.676 2.63715 84.4319 2.35938C85.1963 2.07292 86.0982 1.92969 87.1374 1.92969C87.9019 1.92969 88.5976 1.99479 89.2246 2.125C89.8516 2.24653 90.3627 2.38542 90.7578 2.54167L89.7529 5.45833C89.4522 5.36285 89.1258 5.27604 88.7737 5.19792C88.4215 5.11979 88.0178 5.08073 87.5626 5.08073C87.0129 5.08073 86.6092 5.25 86.3515 5.58854C86.1025 5.9184 85.9779 6.34375 85.9779 6.86458V7.77604H89.3792V10.7578Z" fill="#780096"/>
<defs>
<clipPath id="clip0_48_2907">
<rect width="28.0351" height="21.6667" fill="white" transform="translate(0.648926 0.666748)"/>
</clipPath>
</defs>
</svg>
